<svg xmlns="http://www.w3.org/2000/svg" viewBox="0 0 24 24"><defs><style>.cls-1{fill:#faa61a;}.cls-2{fill:#fff;}.cls-3{fill:none;}</style></defs><title>261_chain_link</title><g id="Layer_2" data-name="Layer 2"><g id="Layer_1-2" data-name="Layer 1"><circle class="cls-1" cx="12.0049" cy="11.9667" r="11"/><path class="cls-2" d="M16.57,8.842c-1.26,0-2.77,1.2-4.59,1.2-1.78,0-3.32-1.2-4.54-1.2a3.095,3.095,0,0,0,0,6.19c1.2,0,2.75-1.22,4.54-1.22,1.8,0,3.32,1.22,4.59,1.22a3.095,3.095,0,0,0,0-6.19Zm-9.13,4.49a1.395,1.395,0,1,1,1.39-1.39A1.3934,1.3934,0,0,1,7.44,13.332Zm9.13,0a1.395,1.395,0,1,1,1.39-1.39A1.3934,1.3934,0,0,1,16.57,13.332Z"/><rect class="cls-3" width="24" height="24"/></g></g></svg>