<?xml version="1.0" encoding="UTF-8"?>
<svg xmlns="http://www.w3.org/2000/svg" version="1.1" viewBox="0 0 66 66">
    <g>
        <path fill="#fbad41" d="M52.9,29.1c-.2,0-.4,0-.7,0,0,0,0,0-.1,0-.1,0-.2.1-.2.3l-.9,3.2c-.4,1.4-.3,2.7.4,3.6.6.9,1.6,1.4,2.9,1.5l5,.3c.2,0,.3,0,.4.2,0,.1.1.3,0,.4,0,.2-.3.4-.5.4l-5.2.3c-2.8.1-5.9,2.5-7,5.3l-.4,1c0,.1,0,.3.2.4,0,0,0,0,0,0h18.1c.2,0,.4-.1.5-.4.3-1.2.5-2.3.5-3.5,0-7.2-5.8-13.1-12.9-13.1"/>
        <path fill="#f6821f" d="M45,45.6l.3-1.2c.4-1.4.3-2.7-.4-3.6-.6-.9-1.6-1.4-2.9-1.5l-23.7-.3c-.1,0-.3,0-.4-.2,0-.1-.1-.3,0-.4,0-.2.3-.4.6-.4l23.9-.3c2.8-.1,5.9-2.5,7-5.3l1.4-3.6c0-.2,0-.3,0-.5-1.6-7-7.8-12.3-15.2-12.3s-12.6,4.5-14.7,10.7c-1.4-1.1-3.2-1.6-4.9-1.4-3.3.3-5.9,3-6.2,6.3,0,.8,0,1.7.2,2.5-5.4.2-9.7,4.6-9.7,10.1s0,1,.1,1.5c0,.2.2.4.5.4h43.7c.3,0,.5-.2.5-.4"/>
    </g>
</svg>