<svg viewBox="0 0 64 64" version="1.1" xmlns="http://www.w3.org/2000/svg">
    <g class="icon-color">
        <path d="M38.012,38.722 C38.209,38.047 38.134,37.428 37.806,36.968 C37.506,36.546 36.999,36.302 36.39,36.274 L24.845,36.124 C24.77,36.124 24.705,36.086 24.667,36.03 C24.629,35.974 24.62,35.9 24.639,35.824 C24.677,35.711 24.789,35.627 24.911,35.618 L36.559,35.468 C37.939,35.402 39.439,34.286 39.963,32.918 L40.629,31.183 C40.6583194,31.1117611 40.6652943,31.0332934 40.649,30.958 C39.899,27.563 36.869,25.031 33.249,25.031 C29.909,25.031 27.079,27.188 26.065,30.181 C25.408,29.693 24.565,29.431 23.673,29.515 C22.069,29.675 20.773,30.959 20.625,32.563 C20.5861345,32.9619031 20.6145293,33.3645009 20.709,33.754 C18.0849045,33.8250467 15.9957842,35.9749462 16,38.6 C16,38.834 16.02,39.07 16.047,39.303 C16.067,39.416 16.16,39.5 16.272,39.5 L37.58,39.5 C37.7057437,39.4975782 37.8155943,39.4143825 37.852,39.294 L38.012,38.722 L38.012,38.722 Z"/>
        <path d="M41.368,31.313 C41.293,31.313 41.228,31.369 41.198,31.443 L40.748,33.009 C40.551,33.684 40.626,34.303 40.954,34.763 C41.254,35.185 41.761,35.429 42.37,35.457 L44.827,35.607 C44.902,35.607 44.967,35.645 45.005,35.701 C45.043,35.757 45.052,35.841 45.033,35.907 C44.995,36.02 44.883,36.104 44.761,36.113 L42.201,36.263 C40.813,36.329 39.321,37.445 38.797,38.813 L38.609,39.291 C38.571,39.385 38.637,39.479 38.739,39.479 L47.536,39.479 C47.6407322,39.4804711 47.7332308,39.4109944 47.761,39.31 C47.9168871,38.7553227 47.9972779,38.18216 48,37.606 C47.9900905,34.1257119 45.1682995,31.3083913 41.688,31.304 L41.368,31.313 Z"
              opacity="0.8"/>
    </g>
</svg>
