<?xml version="1.0" encoding="UTF-8"?>
<svg xmlns="http://www.w3.org/2000/svg" version="1.1" viewBox="0 0 64 64">
    <g>
        <path fill="#fbad41" d="M0,0h64v64H0V0Z"/>
        <g>
            <path fill="#ffffff"
                  d="M21.4,44.1h-7.1c-.6,0-1.1.6-1.1,1.2v4.2c0,.6.5,1.2,1.1,1.2h7.1c.6,0,1.1-.6,1.1-1.2v-4.2c0-.6-.5-1.2-1.1-1.2Z"/>
            <path fill="#ffffff"
                  d="M34.5,37.6h-7.1c-.6,0-1.1.6-1.1,1.2v10.8c0,.6.5,1.2,1.1,1.2h7.1c.6,0,1.1-.6,1.1-1.2v-10.8c0-.6-.5-1.2-1.1-1.2Z"/>
            <path fill="#ffffff"
                  d="M47.7,31h-7.1c-.6,0-1.1.6-1.1,1.2v17.3c0,.6.5,1.2,1.1,1.2h7.1c.6,0,1.1-.6,1.1-1.2v-17.3c0-.6-.5-1.2-1.1-1.2Z"/>
            <path fill="#ffffff"
                  d="M49.6,18.4l-2.5-6h0s0,0,0,0c0,0,0-.1-.1-.2,0-.2-.3-.4-.5-.5,0,0-.2-.1-.2-.2h0s0,0,0,0c-.1,0-.2,0-.4,0,0,0-.2,0-.3,0,0,0-.2,0-.3,0-.1,0-.2,0-.3,0h0s-6.1,2.5-6.1,2.5c-.8.4-1.2,1.3-.9,2.2.3.8,1.3,1.2,2.1.9l2-.8c-9.7,17-25.2,15.1-25.9,15-.9-.1-1.7.5-1.8,1.3,0,0,0,0,0,0-.1.9.5,1.7,1.4,1.9.7,0,1.4.1,2.1.1,11.8-.2,22.4-7,27.5-17.6l1.1,2.7c.3.8,1.3,1.3,2.1,1,.8-.3,1.3-1.3,1-2.1,0,0,0,0,0,0h0Z"/>
        </g>
    </g>
</svg>